<?xml version="1.0" standalone="no"?><!DOCTYPE svg PUBLIC "-//W3C//DTD SVG 1.1//EN" "http://www.w3.org/Graphics/SVG/1.1/DTD/svg11.dtd"><svg t="1586784672066" class="icon" viewBox="0 0 1024 1024" version="1.1" xmlns="http://www.w3.org/2000/svg" p-id="10746" width="32" height="32" xmlns:xlink="http://www.w3.org/1999/xlink"><defs><style type="text/css"></style></defs><path d="M86.592853 339.770027H636.0064c26.69568 0 48.223573 23.25504 48.223573 51.674453 0 28.416-21.527893 51.667627-48.223573 51.667627H86.592853c-26.699093 0-48.226987-23.251627-48.226986-51.667627 0-28.422827 21.527893-51.674453 48.226986-51.674453z m0 241.124693H636.0064c26.69568 0 48.223573 23.251627 48.223573 51.67104s-21.527893 51.667627-48.223573 51.674453H86.592853c-26.699093 0-48.226987-23.25504-48.226986-51.674453s21.527893-51.667627 48.226986-51.67104z m3.44064 232.50944h843.936427c28.419413 0 51.667627 23.251627 51.667627 51.674453 0 28.416-23.25504 51.667627-51.667627 51.667627H90.033493c-28.419413 0-51.667627-23.25504-51.667626-51.667627 0-28.42624 23.25504-51.674453 51.667626-51.674453z m654.47936-473.634133L985.637547 512l-241.124694 172.229973V339.770027z m189.457067-129.174187H90.033493c-28.419413 0-51.667627-23.251627-51.667626-51.667627 0-28.419413 23.25504-51.674453 51.667626-51.674453h843.936427c28.419413 0 51.667627 23.25504 51.667627 51.674453s-23.251627 51.667627-51.667627 51.667627z m0 0" p-id="10747" fill="#999999"></path></svg>