<?xml version="1.0" standalone="no"?><!DOCTYPE svg PUBLIC "-//W3C//DTD SVG 1.1//EN" "http://www.w3.org/Graphics/SVG/1.1/DTD/svg11.dtd"><svg t="1586784592563" class="icon" viewBox="0 0 1024 1024" version="1.1" xmlns="http://www.w3.org/2000/svg" p-id="9861" width="32" height="32" xmlns:xlink="http://www.w3.org/1999/xlink"><defs><style type="text/css"></style></defs><path d="M112.80000001 356L623.2 356c24.8 0 44.8 21.6 44.8 48s-20 48-44.8 48l-510.4 0c-24.8 0-44.8-21.6-44.8-48S88 356 112.80000001 356zM112.8 580L623.2 580c24.8 0 44.8 21.6 44.8 48s-20 48-44.8 48l-510.4-1e-8c-24.8 0-44.8-21.6-44.8-47.99999999S88 580 112.8 580zM116 796l781.6 0c26.4 0 49.6 20 50.4 46.4 0.8 27.2-20.8 49.6-48 49.6l-781.6 1e-8c-26.4 0-49.6-20-50.4-46.40000001C67.2 818.4 88.8 796 116 796zM948 356.8L948 675.2c0 0 0 0 0 0l-223.2-159.2c0 0 0 0 0 0L948 356.8C948 356 948 356 948 356.8zM900 236l-781.6 0c-26.4 0-49.6-20-50.4-46.4-0.8-27.2 20.8-49.6 48-49.6l781.6-1e-8c26.4 0 49.6 20 50.4 46.40000001C948.8 213.6 927.2 236 900 236z" p-id="9862" fill="#999999"></path></svg>